# xmcd
#
# Track frame offsets:
#	150
#	17745
#	33754
#	42982
#	62792
#	87405
#	99418
#	109911
#	124265
#	137386
#	155388
#	167832
#	183072
#	196400
#
# Disc length: 2801 seconds
#
# Revision: 0
# Processed by: cddbd v1.5.2PL0 Copyright (c) Steve Scherf et al.
# Submitted via: EZCDAudioConverter 2.1.7.1
#
DISCID=b10aef0e
DTITLE=Captain Beefheart - Out-Takes
DYEAR=1900
DGENRE=
TTITLE0=Alice In Blunderland [Alternate Version]
TTITLE1=Harry Irene
TTITLE2=I Can't Do This Unless I Can Do This/Seam Crooked Sam
TTITLE3=Pompadour Swamp/Suction Prints
TTITLE4=The Witch Doctor Life [Instrumental Take]
TTITLE5=Two Rips In A Haystack/Kiss Me My Love
TTITLE6=Best Batch Yet (Track) [Version 1]
TTITLE7=Your Love Brought Me To Life [Instrumental]
TTITLE8=Dirty Blue Gene [Alternate Version 1]
TTITLE9=Nowadays A Woman's Gotta Hit A Man [Early Mix]
TTITLE10=Kiss Where I Kain't
TTITLE11=Circumstances [Alternate Vesion 2]
TTITLE12=Little Scratch
TTITLE13=Dirty Blue Gene [Alternate Version 3]
EXTD=
EXTT0=
EXTT1=
EXTT2=
EXTT3=
EXTT4=
EXTT5=
EXTT6=
EXTT7=
EXTT8=
EXTT9=
EXTT10=
EXTT11=
EXTT12=
EXTT13=
PLAYORDER=
